<svg id="Capa_1" enable-background="new 0 0 512 512" height="512" viewBox="0 0 512 512" width="512" xmlns="http://www.w3.org/2000/svg"><g><g><g><path d="m309.666 431.396c44.149-7.91 88.164-33.532 120.986-74.653 46.396-58.129 57.642-131.206 34.542-187.373-6.889-16.751-21.941-28.765-39.803-31.769-57.505-9.672-123.18 15.007-169.392 68.443v173.919z" fill="#8cd370"/></g><path d="m326.992 205.286c0-19.938 3.252-39.114 9.245-57.036-29.301 11.651-57.19 31.145-80.237 57.794v173.919l53.666 51.433c41.18-7.378 82.24-30.172 114.211-66.574-57.566-29.959-96.885-90.152-96.885-159.536z" fill="#6dc847"/><g><path d="m307.61 330.949c28.519-37.325 57.045-65.592 76.464-83.118 8.332-7.519 8.991-20.37 1.472-28.701-7.519-8.332-20.369-8.992-28.701-1.472-15.599 14.078-36.707 34.658-59.163 60.953l-13.803 33.807z" fill="#6dc847"/></g><path d="m330.863 242.517c-10.319 10.435-21.566 22.493-33.182 36.094l-13.803 33.807 23.731 18.53c13.05-17.079 26.098-32.255 38.278-45.38-6.738-13.473-11.834-27.909-15.024-43.051z" fill="#4eb229"/><path d="m261.66 212.824c-46.396-58.129-115.162-85.296-175.052-75.223-17.861 3.004-32.913 15.018-39.803 31.769-23.1 56.167-11.854 129.244 34.542 187.373 47.972 60.102 119.857 87.105 181.12 74.068 13.758-2.928 25.358-12.186 31.263-24.953 26.296-56.849 15.902-132.931-32.07-193.034z" fill="#8cd370"/><g><path d="m287.143 489.824c-14.842-51.317-40.786-102.245-77.111-151.368-30.357-41.054-61.406-71.941-82.107-90.624-8.332-7.519-8.991-20.37-1.472-28.701 7.519-8.332 20.369-8.992 28.701-1.472 22.081 19.928 55.196 52.869 87.557 96.632 39.202 53.015 67.287 108.274 83.475 164.241 3.118 10.781-3.094 22.049-13.876 25.168-10.719 3.097-22.03-3.031-25.167-13.876z" fill="#4eb229"/></g></g><g><path d="m313.059 86.289 5.279-13.859h35.57l5.222 13.838c1.467 3.885 5.799 5.828 9.665 4.369 3.875-1.462 5.832-5.79 4.369-9.665l-28.322-75.049c-.026-.069-.053-.137-.081-.205-1.429-3.473-4.777-5.715-8.531-5.715-.003 0-.007 0-.01 0-3.759.003-7.106 2.254-8.529 5.733-.023.056-.045.113-.067.169l-28.583 75.045c-1.475 3.871.468 8.204 4.339 9.679s8.204-.469 9.679-4.34zm23.145-60.77 12.043 31.911h-24.197z"/><path d="m399.239.484c-3.134.977-5.268 3.878-5.268 7.16v75.976c0 4.142 3.358 7.5 7.5 7.5s7.5-3.358 7.5-7.5v-51.917l37.7 54.592c2.284 3.299 6.062 4.712 9.624 3.6 3.654-1.141 6.015-4.611 6.015-8.913l-.711-73.552c-.04-4.118-3.39-7.427-7.498-7.427-.024 0-.049 0-.074 0-4.142.04-7.467 3.431-7.427 7.572l.512 52.962-39.469-57.155c-1.866-2.701-5.271-3.873-8.404-2.898z"/><path d="m178.894 15.697c4.142 0 7.5-3.357 7.5-7.5 0-4.142-3.358-7.5-7.5-7.5h-31.78c-4.142 0-7.5 3.358-7.5 7.5v75.423c0 4.142 3.358 7.5 7.5 7.5h31.78c4.142 0 7.5-3.358 7.5-7.5 0-4.143-3.358-7.5-7.5-7.5h-24.28v-22.712h21.937c4.142 0 7.5-3.358 7.5-7.5s-3.358-7.5-7.5-7.5h-21.937v-22.711z"/><path d="m248.387 15.002c6.124 0 12.031 1.803 17.081 5.214 3.433 2.319 8.094 1.417 10.413-2.016s1.416-8.095-2.017-10.414c-7.539-5.093-16.349-7.785-25.477-7.785-25.122 0-45.559 20.437-45.559 45.558 0 25.122 20.437 45.559 45.559 45.559 23.76 0 40.354-18.735 40.354-45.559 0-4.142-3.358-7.5-7.5-7.5h-22.77c-4.142 0-7.5 3.358-7.5 7.5 0 4.143 3.358 7.5 7.5 7.5h14.634c-2.051 11.844-9.272 23.06-24.718 23.06-16.851 0-30.559-13.709-30.559-30.559 0-16.849 13.708-30.558 30.559-30.558z"/><path d="m84.836 91.12h.063c3.92-.027 7.402-2.539 8.681-6.3l24.853-74.813c1.306-3.931-.822-8.176-4.753-9.482-3.932-1.307-8.176.823-9.482 4.753l-19.482 58.645-20.438-58.881c-1.358-3.913-5.633-5.984-9.545-4.625-3.913 1.358-5.984 5.631-4.626 9.544l26.043 75.027c1.306 3.674 4.791 6.132 8.686 6.132z"/><path d="m314.396 510.902c14.736-4.262 23.258-19.719 18.996-34.456-3.823-13.217-8.306-26.393-13.422-39.507 44.554-10.258 85.656-36.82 116.544-75.518 44.648-55.939 61.585-131.763 35.617-194.903-7.93-19.28-24.937-32.855-45.495-36.312-22.896-3.853-46.739-2.594-70.865 3.74-4.006 1.051-6.402 5.151-5.35 9.158 1.052 4.006 5.152 6.402 9.159 5.35 22.057-5.79 43.78-6.952 64.568-3.456 15.414 2.592 28.165 12.77 34.11 27.226 23.991 58.335 7.515 128.494-33.468 179.841-29.323 36.738-68.397 61.704-110.567 70.789-3.043-7.132-6.412-14.547-10.125-22.217 8.39-21.436 11.847-44.628 11.12-67.273 27.803-36.046 55.441-63.32 73.882-79.963 11.415-10.301 12.318-27.878 2.015-39.294-10.3-11.414-27.877-12.318-39.294-2.015-12.6 11.371-31.164 29.158-51.492 52.063-8.604-21.326-20.549-41.085-34.399-57.976 18.285-19.888 40.198-36.04 63.717-46.923 3.759-1.739 5.396-6.197 3.657-9.956s-6.196-5.397-9.956-3.657c-24.825 11.485-47.946 28.415-67.337 49.199-21.153-22.699-46.413-40.571-73.911-52.118-32.02-13.447-65.471-17.775-96.734-12.517-20.559 3.457-37.566 17.032-45.495 36.312-26.028 63.284-8.916 139.109 35.617 194.903 15.561 19.496 33.818 35.997 54.263 49.046 3.491 2.228 8.128 1.206 10.357-2.287 2.229-3.491 1.204-8.129-2.287-10.357-19.052-12.16-36.08-27.555-50.61-45.759-40.85-51.179-57.526-121.345-33.468-179.841 5.945-14.455 18.696-24.633 34.11-27.226 28.457-4.786 59.04-.791 88.438 11.555 88.425 37.133 142.374 139.873 118.274 225.387-13.552-25.329-29.148-49.559-45.822-72.109-32.728-44.261-66.225-77.582-88.562-97.74-11.528-10.403-29.103-9.28-39.294 2.015-10.25 11.36-9.445 28.953 2.015 39.294 28.993 26.172 57.087 57.039 81.101 89.515 20.286 27.436 36.909 54.993 49.953 81.855-28.887 4.625-59.677.269-89.515-12.733-3.798-1.655-8.217.083-9.872 3.88s.082 8.217 3.879 9.872c24.025 10.469 48.691 15.776 72.744 15.776 9.902 0 19.702-.906 29.307-2.716 7.812 17.605 14.307 35.311 19.439 53.059 4.253 14.696 19.683 23.263 34.458 18.994zm47.474-287.677c5.272-4.757 13.369-4.323 18.108.929 4.748 5.26 4.333 13.36-.929 18.108-16.697 15.069-40.748 38.634-65.769 69.386-1.555-10.637-4.121-21.648-7.155-31.356 21.975-25.394 42.325-44.954 55.745-57.067zm-145.805 110.77c-24.906-33.682-53.812-65.291-83.113-91.732-5.26-4.747-5.678-12.845-.928-18.109 4.836-5.359 12.957-5.575 18.107-.928 21.828 19.7 54.563 52.263 86.551 95.523 35.926 48.581 65.305 103.108 82.301 161.865 1.964 6.791-1.963 13.915-8.753 15.879-6.794 1.962-13.917-1.964-15.881-8.754-16.192-55.988-44.309-107.794-78.284-153.744z"/></g></g></svg>