<svg height="512" viewBox="0 0 48 48" width="512" xmlns="http://www.w3.org/2000/svg"><g id="Halal_sign" data-name="Halal sign"><path d="m40 31 7-7-7-7v-9h-9l-7-7-7 7h-9v9l-7 7 7 7v9h9l7 7 7-7h9z" fill="#9dcc6b"/><path d="m47 24-7 7v9h-9l-1 1a22 22 0 0 1 -23-23l1-1v-9h9l7-7 7 7h9v9z" fill="#b5e08c"/><g fill="#edebf2"><path d="m29.24 30.33a2.83 2.83 0 0 1 -2.57-1c-2.19-2.71-1-10.8-.81-11.72a1 1 0 0 1 2 .33c-.35 2.15-1.1 10.32.87 10.41a9.88 9.88 0 0 0 6.22-1.74 17.2 17.2 0 0 0 -2.64-1.22 1.67 1.67 0 0 0 -1.76.47 1 1 0 0 1 -1.4.2c-1.37-1 1.06-3.37 3.73-2.59 1.84.54 3 1.64 4.14 1.64a1 1 0 0 1 .77 1.64 11.43 11.43 0 0 1 -8.55 3.58z"/><path d="m19 29c3.64-.58 6.35-3.14 6.35-5.05a1 1 0 0 1 1-1c2.46 0 .5 6.83-7 8a1 1 0 0 1 -.35-1.95z"/><path d="m23.57 23.64a1 1 0 0 1 -1-.74 5.19 5.19 0 0 0 -2.46-3.32 1 1 0 0 1 .89-1.81c2.41 1.12 5 5.87 2.57 5.87z"/><path d="m13.3 30.75c-2.66 0-3.74-2.3-3.16-4.83a1 1 0 0 1 1.95.44 2.64 2.64 0 0 0 .24 2.05c.08.1.33.39 1.15.34a3.26 3.26 0 0 0 3.21-2.61c-.06-1.06-.82-7-1.22-10a1 1 0 0 1 2-.26c0 .36 1.15 8.76 1.23 10.16.1 2.15-2.27 4.71-5.4 4.71z"/></g><path d="m47.71 23.29-6.71-6.7v-8.59a1 1 0 0 0 -1-1h-8.59l-6.7-6.71a1 1 0 0 0 -1.42 0l-6.7 6.71h-8.59a1 1 0 0 0 -1 1v8.59l-6.71 6.7a1 1 0 0 0 0 1.42l6.71 6.7v8.59a1 1 0 0 0 1 1h8.59c7.41 7.37 6.83 7 7.41 7s.19.23 7.41-7h8.59a1 1 0 0 0 1-1v-8.59l6.71-6.7a1 1 0 0 0 0-1.42zm-8.42 7c-.41.42-.29.16-.29 8.71-8.56 0-8.29-.12-8.71.29l-6.29 6.3-6.29-6.3c-.42-.41-.16-.29-8.71-.29 0-8.56.12-8.29-.29-8.71l-6.3-6.29 6.3-6.29c.41-.42.29-.16.29-8.71 8.56 0 8.29.12 8.71-.29l6.29-6.3 6.29 6.3c.42.41.16.29 8.71.29 0 8.56-.12 8.29.29 8.71l6.3 6.29z"/><path d="m37 25.08c-1.16 0-2.3-1.1-4.14-1.64-2.68-.79-5.11 1.56-3.73 2.56a1 1 0 0 0 1.4-.2c1-1.35 3 .11 4.4.75a9.88 9.88 0 0 1 -6.22 1.74c-1.93-.08-1.29-7.82-.87-10.41a1 1 0 0 0 -2-.33 39.73 39.73 0 0 0 -.47 6.35c-.07 2.62-3.62 4.68-6.37 5.1a1 1 0 0 0 .16 2 11.09 11.09 0 0 0 6.66-3.44c.43 1.49 1.24 2.69 2.77 2.76a11.62 11.62 0 0 0 9.15-3.6 1 1 0 0 0 -.74-1.64z"/><path d="m20.14 19.58a5.19 5.19 0 0 1 2.46 3.32 1 1 0 0 0 1 .74c2.46 0-.16-4.75-2.59-5.87a1 1 0 0 0 -.87 1.81z"/><path d="m17.46 15.87a1 1 0 0 0 -2 .26c.4 3 1.16 9 1.22 10a3.26 3.26 0 0 1 -3.21 2.61c-.82.05-1.07-.24-1.15-.34a2.64 2.64 0 0 1 -.24-2.05 1 1 0 0 0 -1.95-.44c-.58 2.53.5 4.83 3.16 4.83 3.18 0 5.5-2.6 5.39-4.72-.07-1.39-1.18-9.79-1.22-10.15z"/></g></svg>