<svg id="Layer_1" height="512" viewBox="0 0 512 512" width="512" xmlns="http://www.w3.org/2000/svg" data-name="Layer 1"><path d="m275.576 347.588a7 7 0 0 0 -9.9 0l-28.991 28.991a7 7 0 0 0 0 9.9l28.991 28.991a7 7 0 0 0 9.9 0l28.992-28.991a7 7 0 0 0 0-9.9zm-4.949 53.032-19.091-19.092 19.091-19.091 19.092 19.091zm44.181-122.684a7 7 0 0 0 -9.9 0l-18.385 18.384a7 7 0 0 0 0 9.9l18.385 18.38a7 7 0 0 0 9.9 0l18.385-18.384a7 7 0 0 0 0-9.9zm-4.95 31.819-8.485-8.485 8.485-8.485 8.486 8.485zm-51.336-73.872a7 7 0 0 0 -2.049-4.95l-26.952-26.951a7 7 0 0 0 -9.9 0l-26.951 26.951a7 7 0 0 0 0 9.9l26.951 26.951a7 7 0 0 0 9.9 0l26.952-26.951a7 7 0 0 0 2.049-4.95zm-33.951 17.051-17.052-17.051 17.052-17.052 17.052 17.052zm213.641-225.834h-50.16a37.7 37.7 0 0 0 -37.252 32.588c-.01.07-.019.14-.026.21l-1.517 14.702h-135.967l34.859-34.859a7 7 0 0 0 0-9.9c-7.776-7.774-14.641-8.706-19.882-7.321a103.328 103.328 0 0 0 -145.361 140.842c1.439 2.257 1.283 2.72 1.225 2.9-3.48 10.415 4.3 18.195 6.855 20.751a7 7 0 0 0 9.9 0l41.214-41.223 29.939 316.928v19.036a25.671 25.671 0 0 0 25.646 25.646h145.883a25.672 25.672 0 0 0 25.643-25.643v-19.039l35.94-380.455a7 7 0 0 0 -6.969-7.659h-13.418l.99-10.317a2.37 2.37 0 0 1 2.3-1.936h50.16a7 7 0 0 0 7-7v-21.251a7 7 0 0 0 -7.002-7zm-252.8 428.289-25.412-268.977c14.594-6.031 63.631-22.874 107.178 1.74a123.641 123.641 0 0 0 61.467 16.275 130.692 130.692 0 0 0 25.366-2.506 138.344 138.344 0 0 0 26.535-8.1l-24.705 261.57zm166.18-267.314 10.291-99.475h7.473l-9.356 97.492c-2.637.72-5.448 1.393-8.407 1.985zm-14.28 1.98a109.435 109.435 0 0 1 -63.242-14.093c-45.817-25.9-95.326-11.832-115.442-4.111l-7.863-83.251h197.043zm-174.33-115.455h-16.295l-20.603-20.6a69.251 69.251 0 0 1 36.9-15.278zm-46.8-10.7 20.084 20.083 1.6 16.923h-36.98a68.892 68.892 0 0 1 15.296-37.006zm60.8 10.7v-35.9a69.281 69.281 0 0 1 37.112 15.3l-20.6 20.6zm-79.568 96.082c2.058-6.173-.363-11.176-2.7-14.845-22.295-34.983-17.153-81.7 12.228-111.079 31.038-31.04 81-34.777 116.215-8.692a7 7 0 0 0 7.665.439 2.881 2.881 0 0 1 1.208-.438l-8.009 8.009a83.568 83.568 0 0 0 -117.766 117.764zm18.768-18.769a68.892 68.892 0 0 1 -15.3-37.007h38.3l1.218 12.794zm227.386 341.487h-145.883a11.655 11.655 0 0 1 -11.642-11.643v-12.366h169.168v12.363a11.656 11.656 0 0 1 -11.643 11.646zm46.922-404.8-8.416 89.1c-1.783.909-4.326 2.124-7.534 3.447l8.88-92.547zm40.722-40.253h-43.16a16.385 16.385 0 0 0 -16.188 14.162c-.011.087-.021.173-.029.261l-1.135 11.83h-7.369l1.361-13.153a23.659 23.659 0 0 1 23.36-20.347h43.16z"/></svg>