<svg id="Capa_1" enable-background="new 0 0 512 512" height="512" viewBox="0 0 512 512" width="512" xmlns="http://www.w3.org/2000/svg"><g><g><path d="m344.15 365.37c-22.7 19.39-54.3 22.84-73.15 22.94v48.69c0 8.28-6.72 15-15 15s-15-6.72-15-15v-48.69c-20.05-.11-54.54-3.99-77.38-26.84-33.15-33.15-26.38-90.87-26.08-93.31.85-6.81 6.22-12.18 13.03-13.03.31-.04 1.54-.18 3.49-.34-22.18-33.45-16.79-79.4-16.52-81.57.47-3.76 2.31-7.08 5.02-9.44l-77.88-77.88c-41.82 46.9-64.68 106.75-64.68 170.1 0 141.493 114.497 256 256 256 63.35 0 123.2-22.86 170.1-64.68zm-88.15-365.37c-63.35 0-123.2 22.86-170.1 64.68l95.52 95.52c6.12.61 12.77 1.63 19.55 3.3-1.1-5.13-1.72-10.45-1.72-15.92 0-46.88 45.6-82.91 47.54-84.42 5.42-4.21 13-4.21 18.42 0 1.94 1.51 47.54 37.54 47.54 84.42 0 5.47-.62 10.79-1.72 15.92 25.43-6.25 48.87-3.5 50.4-3.31 6.81.85 12.18 6.21 13.03 13.03.27 2.17 5.66 48.12-16.52 81.58 1.95.15 3.18.29 3.49.33 6.81.85 12.18 6.22 13.03 13.03.25 2 4.83 41.07-11.72 73.36l84.58 84.58c41.82-46.9 64.68-106.75 64.68-170.1 0-141.493-114.497-256-256-256z"/><path d="m345.22 284.37c-.606 50.259-23.149 73.605-73.94 73.94.1-15.18 2.79-40.62 18.05-55.89 15.27-15.26 40.72-17.95 55.89-18.05z"/><path d="m240.72 358.31c-15.18-.1-40.62-2.78-55.89-18.05s-17.95-40.71-18.05-55.89c15.18.11 40.62 2.79 55.89 18.05 15.27 15.27 17.95 40.72 18.05 55.89z"/><path d="m240.72 263.33c-15.21-.14-40.73-2.85-55.89-18.01-15.27-15.27-17.95-40.72-18.05-55.89 52.711.555 73.614 25.262 73.94 73.9z"/><path d="m271.28 263.33c15.21-.14 40.73-2.85 55.89-18.01 15.27-15.27 17.95-40.72 18.05-55.89-52.711.555-73.614 25.262-73.94 73.9z"/><path d="m282.75 147.58c0 19.4-13.067 38.435-26.75 52.29-13.695-13.954-26.75-32.828-26.75-52.29 0-21.59 16.09-41.48 26.75-52.28 10.66 10.81 26.75 30.7 26.75 52.28z"/></g></g></svg>