<svg id="Capa_1" enable-background="new 0 0 512 512" height="512" viewBox="0 0 512 512" width="512" xmlns="http://www.w3.org/2000/svg"><g><path d="m356.73 7.5 9.77 28.36-28.36 9.77h-39.78l30-28.36z" fill="#54d8ff"/><path d="m338.14 45.63-67.14 23.13v118.74h-30v-118.74c0-12.8 8.12-24.19 20.23-28.36l67.13-23.13z" fill="#8de5ff"/><path d="m256 202.5 64.997 302h30l30.503-287v-15z" fill="#d94b41"/><path d="m351.5 202.5h-221v15l30.503 287h159.994l30.503-287z" fill="#ff6c4a"/><path d="m365.997 142.5h-31.73v60h47.233v-15z" fill="#ffe341"/><path d="m334.267 142.5h-188.264l-15.503 45v15h219.269v-15z" fill="#fff1a0"/><path d="m396.5 187.5h-30v30h30c8.284 0 15-6.716 15-15s-6.716-15-15-15z" fill="#fff1a0"/><path d="m381.5 202.5c0-8.284-6.716-15-15-15h-251c-8.284 0-15 6.716-15 15s6.716 15 15 15h251c8.284 0 15-6.716 15-15z" fill="#fff9d6"/><path d="m396.5 180h-9.651l-13.761-39.943c-1.042-3.026-3.891-5.057-7.091-5.057h-87.497v-60.887l90.443-31.158c3.916-1.349 5.997-5.618 4.647-9.534l-9.771-28.364c-.647-1.881-2.017-3.427-3.804-4.299-1.789-.871-3.848-.997-5.73-.349l-95.499 32.9c-15.125 5.21-25.286 19.458-25.286 35.455v66.236h-87.497c-3.2 0-6.049 2.031-7.091 5.057l-13.761 39.943h-9.651c-12.406 0-22.5 10.094-22.5 22.5s10.094 22.5 22.5 22.5h8.255l29.79 280.292c.405 3.814 3.623 6.708 7.458 6.708h189.994c3.835 0 7.053-2.894 7.458-6.708l29.79-280.292h8.255c12.406 0 22.5-10.093 22.5-22.5s-10.094-22.5-22.5-22.5zm-148-111.236c0-9.598 6.097-18.146 15.172-21.273l88.408-30.458 4.886 14.182-88.409 30.458c-3.025 1.042-5.057 3.89-5.057 7.091v66.236h-15zm95.752 428.236h-176.504l-28.909-272h234.321zm52.248-287h-281c-4.136 0-7.5-3.364-7.5-7.5s3.364-7.5 7.5-7.5h15c3.2 0 6.049-2.031 7.091-5.057l13.76-39.943h209.297l10.335 30h-208.753c-4.143 0-7.5 3.358-7.5 7.5s3.357 7.5 7.5 7.5h219.095c.115.003.233.003.349 0h14.826c4.136 0 7.5 3.364 7.5 7.5s-3.364 7.5-7.5 7.5z"/></g></svg>